<svg id="visual" viewBox="0 0 900 600" width="900" height="600" xmlns="http://www.w3.org/2000/svg" xmlns:xlink="http://www.w3.org/1999/xlink" version="1.1"><rect x="0" y="0" width="900" height="600" fill="#d6e1ff"></rect><path d="M0 330L30 306C60 282 120 234 180 216.7C240 199.3 300 212.7 360 225.2C420 237.7 480 249.3 540 265.7C600 282 660 303 720 296.3C780 289.7 840 255.3 870 238.2L900 221L900 601L870 601C840 601 780 601 720 601C660 601 600 601 540 601C480 601 420 601 360 601C300 601 240 601 180 601C120 601 60 601 30 601L0 601Z" fill="#e0e8ff" stroke-linecap="round" stroke-linejoin="miter"></path></svg>